Coordinates
version=1
nRows=12
nColumns=24
inDegrees=yes

Units are S.I. units (second, meters, Newtons, ...)
Angles are in degrees.

endheader
time	pelvis_tilt	pelvis_list	pelvis_rotation	pelvis_tx	pelvis_ty	pelvis_tz	hip_flexion_r	hip_adduction_r	hip_rotation_r	knee_angle_r	ankle_angle_r	subtalar_angle_r	mtp_angle_r	hip_flexion_l	hip_adduction_l	hip_rotation_l	knee_angle_l	ankle_angle_l	subtalar_angle_l	mtp_angle_l	lumbar_extension	lumbar_bending	lumbar_rotation
      0.52100000	     -1.47172524	      5.67827911	      2.83558443	     -0.72096622	      0.97203159	      0.28403129	     27.88422638	     -4.13947805	     -5.70273589	     -5.56552652	      7.70281373	     -4.13122532	      0.95350782	    -15.20368985	      9.80363673	      2.72206638	     -6.53235518	     12.73931069	     -2.07880849	      0.20095328	     -0.07159922	     -3.87502529	     -2.41392942
      0.52516667	     -1.53540426	      5.64484023	      2.88794112	     -0.71480780	      0.97137597	      0.28417967	     27.89012056	     -4.06890249	     -5.79628349	     -5.64239310	      7.40900219	     -4.48209431	      6.78205313	    -15.26130187	      9.73324745	      2.68205184	     -7.01594200	     12.70837008	     -2.02538814	     -0.30485479	      0.04657846	     -3.82006416	     -2.36540334
      0.52933333	     -1.55135156	      5.60443430	      2.92847685	     -0.70859800	      0.97081343	      0.28432971	     27.87005881	     -3.99461252	     -5.92575259	     -5.85231226	      7.27119551	     -4.53712517	      6.78199446	    -15.36896566	      9.65609892	      2.64990982	     -7.49746242	     12.59268171	     -2.05086662	     -0.30175256	      0.10478301	     -3.76700018	     -2.36705689
      0.53350000	     -1.61721365	      5.56369681	      2.98897731	     -0.70235934	      0.97022762	      0.28445086	     27.90539737	     -3.93450823	     -6.04621431	     -6.12569843	      6.98239495	     -4.62338479	      6.79724122	    -15.38371504	      9.57329503	      2.59441111	     -8.06001087	     12.53693496	     -1.91138559	     -0.27008949	      0.24164171	     -3.68115383	     -2.42334005
      0.53766667	     -1.66503817	      5.51928004	      3.02149522	     -0.69608103	      0.96969500	      0.28460863	     27.92955450	     -3.85998012	     -6.10470835	     -6.46922062	      6.71585485	     -4.76415208	      6.82154704	    -15.40553982	      9.49104515	      2.50606411	     -8.63984882	     12.41436156	     -1.81846872	     -0.22568102	      0.35870209	     -3.60645559	     -2.46115972
      0.54183333	     -1.73491382	      5.47181418	      3.04279286	     -0.68978649	      0.96917426	      0.28481767	     27.96810918	     -3.77130983	     -6.05861436	     -6.84154884	      6.42755164	     -5.04851030	      6.90507558	    -15.35112823	      9.40286179	      2.33469203	     -9.31594727	     12.32154331	     -1.64836987	     -0.07791366	      0.50437395	     -3.53476400	     -2.50904661
      0.54600000	     -1.78007252	      5.42052398	      3.07748507	     -0.68344293	      0.96874543	      0.28498368	     27.97372192	     -3.69355505	     -6.05862285	     -7.24538321	      6.02513065	     -5.25081802	      6.96734804	    -15.33253693	      9.31130134	      2.26908356	     -9.97091186	     12.11272709	     -1.61578444	      0.04582783	      0.62388445	     -3.45591399	     -2.50503479
      0.55016667	     -1.84537223	      5.35046573	      3.08849116	     -0.67706067	      0.96832870	      0.28520680	     28.00322076	     -3.58013860	     -5.96017582	     -7.69695214	      5.65401875	     -5.69676136	      7.14650667	    -15.25994172	      9.19784990	      2.11636066	    -10.67971712	     11.89522482	     -1.45249296	      0.41417348	      0.77718631	     -3.34705038	     -2.51155483
      0.55433333	     -1.88071718	      5.28989582	      3.09180877	     -0.67063374	      0.96799433	      0.28539175	     28.02080806	     -3.49189382	     -5.96337696	     -8.21304514	      5.15045388	     -5.81696107	      7.17795167	    -15.22853770	      9.10622838	      2.07248336	    -11.36731675	     11.59648944	     -1.49013487	      0.50122860	      0.89391371	     -3.24046930	     -2.49576597
      0.55850000	     -1.97399832	      5.22348968	      3.08455071	     -0.66424674	      0.96761674	      0.28565416	     28.08488378	     -3.37491185	     -5.78814266	     -8.72190939	      4.69787432	     -6.29091473	      7.32070759	    -15.04896137	      9.00012358	      1.88999752	    -12.21192784	     11.37180485	     -1.36282008	      0.87748659	      1.08554416	     -3.13969332	     -2.47736224
      0.56266667	     -2.04496640	      5.13696987	      3.09057361	     -0.65779031	      0.96735727	      0.28591506	     28.09609710	     -3.24268269	     -5.62079036	     -9.20641745	      4.19810861	     -6.82837888	      7.58987667	    -14.88682662	      8.86182687	      1.72989290	    -13.05307644	     10.97466695	     -1.21449391	      1.68194290	      1.25713056	     -3.01737155	     -2.43538888
      0.56683333	     -2.07358755	      5.06799713	      3.07812856	     -0.65131958	      0.96718174	      0.28614240	     28.09103492	     -3.14271691	     -5.56779438	     -9.75276613	      3.60132297	     -6.91922985	      7.65035225	    -14.76076299	      8.75694418	      1.64671443	    -13.91064639	     10.56622276	     -1.26326661	      1.91711832	      1.37491425	     -2.90735452	     -2.40329799
